<svg xmlns="http://www.w3.org/2000/svg" style="display: none;">
    <symbol id="logo" viewBox="0 0 127.56 27.9">
        <g id="Слой_2" data-name="Слой 2">
            <g id="Layer_1" data-name="Layer 1">
                <path fill="#14a0ff"
                    d="M73.8,8.37C74.94,3.79,72.16,0,65.35,0L50.59,0,45.06,22.4l3.21,5.51h10.5c6.88,0,12.21-3.21,13.58-8.79.69-2.86-.11-4.86-1.91-5.86v-.07A7.78,7.78,0,0,0,73.8,8.37Zm-9,10.57c-.28,1.17-1.07,2.37-4.34,2.37h-6.7l1.17-4.8h6.67C64.83,16.5,65.07,17.73,64.76,18.94ZM66.14,8.52c-.24.9-.93,2-3.75,2h-6l1-3.9h6C66.24,6.6,66.38,7.52,66.14,8.52Z" />
                <polygon fill="#14a0ff"
                    points="83.09 17.1 96.53 17.1 98.06 10.5 84.71 10.5 85.75 6.6 98.97 6.6 100.5 0 78.8 0 71.92 27.9 96.5 27.9 98.11 21.3 82.1 21.3 83.09 17.1" />
                <polygon fill="#14a0ff"
                    points="102.38 0 100.84 6.6 108.87 6.6 103.6 27.9 112.03 27.9 117.31 6.6 125.91 6.6 127.56 0 102.38 0" />
                <path fill="#fff"
                    d="M8.82,27.9H.32L4,13l.85-2.25L2.6,13,.1,15.53,0,8.09,8.82,0h6.87Z" />
                <path fill="#fff"
                    d="M39.51,16.34,36.8,11.75,49.95,0H37.7l-5,4.8,0,0L15.74,20.35,7.6,27.9H19.19l8.71-7.77,2.93,5c1,1.26,2.41,2.79,8.39,2.79h7L39.52,16.33Z" />
                <path fill="#fff" d="M31.76,3.26l0-.06A7.69,7.69,0,0,0,25.12,0H16.07l6.75,11.48Z" />
            </g>
        </g>
    </symbol>

    <symbol id="icon-instagram" viewBox="0 0 256 256">
        <g fill="none">
            <rect width="256" height="256" fill="url(#skillIconsInstagram0)" rx="60"/>
            <rect width="256" height="256" fill="url(#skillIconsInstagram1)" rx="60"/>
            <path fill="#fff" d="M128.009 28c-27.158 0-30.567.119-41.233.604c-10.646.488-17.913 2.173-24.271 4.646c-6.578 2.554-12.157 5.971-17.715 11.531c-5.563 5.559-8.98 11.138-11.542 17.713c-2.48 6.36-4.167 13.63-4.646 24.271c-.477 10.667-.602 14.077-.602 41.236s.12 30.557.604 41.223c.49 10.646 2.175 17.913 4.646 24.271c2.556 6.578 5.973 12.157 11.533 17.715c5.557 5.563 11.136 8.988 17.709 11.542c6.363 2.473 13.631 4.158 24.275 4.646c10.667.485 14.073.604 41.23.604c27.161 0 30.559-.119 41.225-.604c10.646-.488 17.921-2.173 24.284-4.646c6.575-2.554 12.146-5.979 17.702-11.542c5.563-5.558 8.979-11.137 11.542-17.712c2.458-6.361 4.146-13.63 4.646-24.272c.479-10.666.604-14.066.604-41.225s-.125-30.567-.604-41.234c-.5-10.646-2.188-17.912-4.646-24.27c-2.563-6.578-5.979-12.157-11.542-17.716c-5.562-5.562-11.125-8.979-17.708-11.53c-6.375-2.474-13.646-4.16-24.292-4.647c-10.667-.485-14.063-.604-41.23-.604zm-8.971 18.021c2.663-.004 5.634 0 8.971 0c26.701 0 29.865.096 40.409.575c9.75.446 15.042 2.075 18.567 3.444c4.667 1.812 7.994 3.979 11.492 7.48c3.5 3.5 5.666 6.833 7.483 11.5c1.369 3.52 3 8.812 3.444 18.562c.479 10.542.583 13.708.583 40.396c0 26.688-.104 29.855-.583 40.396c-.446 9.75-2.075 15.042-3.444 18.563c-1.812 4.667-3.983 7.99-7.483 11.488c-3.5 3.5-6.823 5.666-11.492 7.479c-3.521 1.375-8.817 3-18.567 3.446c-10.542.479-13.708.583-40.409.583c-26.702 0-29.867-.104-40.408-.583c-9.75-.45-15.042-2.079-18.57-3.448c-4.666-1.813-8-3.979-11.5-7.479s-5.666-6.825-7.483-11.494c-1.369-3.521-3-8.813-3.444-18.563c-.479-10.542-.575-13.708-.575-40.413c0-26.704.096-29.854.575-40.396c.446-9.75 2.075-15.042 3.444-18.567c1.813-4.667 3.983-8 7.484-11.5c3.5-3.5 6.833-5.667 11.5-7.483c3.525-1.375 8.819-3 18.569-3.448c9.225-.417 12.8-.542 31.437-.563zm62.351 16.604c-6.625 0-12 5.37-12 11.996c0 6.625 5.375 12 12 12s12-5.375 12-12s-5.375-12-12-12zm-53.38 14.021c-28.36 0-51.354 22.994-51.354 51.355c0 28.361 22.994 51.344 51.354 51.344c28.361 0 51.347-22.983 51.347-51.344c0-28.36-22.988-51.355-51.349-51.355zm0 18.021c18.409 0 33.334 14.923 33.334 33.334c0 18.409-14.925 33.334-33.334 33.334c-18.41 0-33.333-14.925-33.333-33.334c0-18.411 14.923-33.334 33.333-33.334"/>
            <defs>
                <radialGradient id="skillIconsInstagram0" cx="0" cy="0" r="1" gradientTransform="matrix(0 -253.715 235.975 0 68 275.717)" gradientUnits="userSpaceOnUse">
                    <stop stop-color="#FD5"/>
                    <stop offset=".1" stop-color="#FD5"/>
                    <stop offset=".5" stop-color="#FF543E"/>
                    <stop offset="1" stop-color="#C837AB"/>
                </radialGradient>
                <radialGradient id="skillIconsInstagram1" cx="0" cy="0" r="1" gradientTransform="matrix(22.25952 111.2061 -458.39518 91.75449 -42.881 18.441)" gradientUnits="userSpaceOnUse">
                    <stop stop-color="#3771C8"/>
                    <stop offset=".128" stop-color="#3771C8"/>
                    <stop offset="1" stop-color="#60F" stop-opacity="0"/>
                </radialGradient>
            </defs>
        </g>
    </symbol>

    <symbol id="icon-tg" viewBox="0 0 256 256">
        <defs>
            <linearGradient id="logosTelegram0" x1="50%" x2="50%" y1="0%" y2="100%">
                <stop offset="0%" stop-color="#2AABEE"/>
                <stop offset="100%" stop-color="#229ED9"/>
            </linearGradient>
        </defs>
        <path fill="url(#logosTelegram0)" d="M128 0C94.06 0 61.48 13.494 37.5 37.49A128.038 128.038 0 0 0 0 128c0 33.934 13.5 66.514 37.5 90.51C61.48 242.506 94.06 256 128 256s66.52-13.494 90.5-37.49c24-23.996 37.5-56.576 37.5-90.51c0-33.934-13.5-66.514-37.5-90.51C194.52 13.494 161.94 0 128 0"/>
        <path fill="#FFF" d="M57.94 126.648c37.32-16.256 62.2-26.974 74.64-32.152c35.56-14.786 42.94-17.354 47.76-17.441c1.06-.017 3.42.245 4.96 1.49c1.28 1.05 1.64 2.47 1.82 3.467c.16.996.38 3.266.2 5.038c-1.92 20.24-10.26 69.356-14.5 92.026c-1.78 9.592-5.32 12.808-8.74 13.122c-7.44.684-13.08-4.912-20.28-9.63c-11.26-7.386-17.62-11.982-28.56-19.188c-12.64-8.328-4.44-12.906 2.76-20.386c1.88-1.958 34.64-31.748 35.26-34.45c.08-.338.16-1.598-.6-2.262c-.74-.666-1.84-.438-2.64-.258c-1.14.256-19.12 12.152-54 35.686c-5.1 3.508-9.72 5.218-13.88 5.128c-4.56-.098-13.36-2.584-19.9-4.708c-8-2.606-14.38-3.984-13.82-8.41c.28-2.304 3.46-4.662 9.52-7.072"/>
    </symbol>

    <symbol id="icon-twitter" viewBox="0 0 256 256">
        <g fill="none">
            <rect width="256" height="256" fill="#fff" rx="60"/>
            <rect width="256" height="256" fill="#1D9BF0" rx="60"/>
            <path fill="#fff" d="M199.572 91.411c.11 1.587.11 3.174.11 4.776c0 48.797-37.148 105.075-105.075 105.075v-.03A104.54 104.54 0 0 1 38 184.677c2.918.351 5.85.526 8.79.533a74.154 74.154 0 0 0 45.865-15.839a36.976 36.976 0 0 1-34.501-25.645a36.811 36.811 0 0 0 16.672-.636c-17.228-3.481-29.623-18.618-29.623-36.198v-.468a36.705 36.705 0 0 0 16.76 4.622c-16.226-10.845-21.228-32.432-11.43-49.31a104.814 104.814 0 0 0 76.111 38.582a36.95 36.95 0 0 1 10.683-35.283c14.874-13.982 38.267-13.265 52.249 1.601a74.105 74.105 0 0 0 23.451-8.965a37.061 37.061 0 0 1-16.234 20.424A73.446 73.446 0 0 0 218 72.282a75.023 75.023 0 0 1-18.428 19.13"/>
        </g>
    </symbol>

    <symbol id="icon-youtube" viewBox="0 0 256 180">
        <path fill="red" d="M250.346 28.075A32.18 32.18 0 0 0 227.69 5.418C207.824 0 127.87 0 127.87 0S47.912.164 28.046 5.582A32.18 32.18 0 0 0 5.39 28.24c-6.009 35.298-8.34 89.084.165 122.97a32.18 32.18 0 0 0 22.656 22.657c19.866 5.418 99.822 5.418 99.822 5.418s79.955 0 99.82-5.418a32.18 32.18 0 0 0 22.657-22.657c6.338-35.348 8.291-89.1-.164-123.134"/>
        <path fill="#FFF" d="m102.421 128.06l66.328-38.418l-66.328-38.418z"/>
    </symbol>
</svg>