<svg xmlns="http://www.w3.org/2000/svg" style="display: none;">
    <symbol id="logo" viewBox="0 0 127.56 27.9">
        <g id="Слой_2" data-name="Слой 2">
            <g id="Layer_1" data-name="Layer 1">
                <path fill="#14a0ff"
                    d="M73.8,8.37C74.94,3.79,72.16,0,65.35,0L50.59,0,45.06,22.4l3.21,5.51h10.5c6.88,0,12.21-3.21,13.58-8.79.69-2.86-.11-4.86-1.91-5.86v-.07A7.78,7.78,0,0,0,73.8,8.37Zm-9,10.57c-.28,1.17-1.07,2.37-4.34,2.37h-6.7l1.17-4.8h6.67C64.83,16.5,65.07,17.73,64.76,18.94ZM66.14,8.52c-.24.9-.93,2-3.75,2h-6l1-3.9h6C66.24,6.6,66.38,7.52,66.14,8.52Z" />
                <polygon fill="#14a0ff"
                    points="83.09 17.1 96.53 17.1 98.06 10.5 84.71 10.5 85.75 6.6 98.97 6.6 100.5 0 78.8 0 71.92 27.9 96.5 27.9 98.11 21.3 82.1 21.3 83.09 17.1" />
                <polygon fill="#14a0ff"
                    points="102.38 0 100.84 6.6 108.87 6.6 103.6 27.9 112.03 27.9 117.31 6.6 125.91 6.6 127.56 0 102.38 0" />
                <path fill="#fff"
                    d="M8.82,27.9H.32L4,13l.85-2.25L2.6,13,.1,15.53,0,8.09,8.82,0h6.87Z" />
                <path fill="#fff"
                    d="M39.51,16.34,36.8,11.75,49.95,0H37.7l-5,4.8,0,0L15.74,20.35,7.6,27.9H19.19l8.71-7.77,2.93,5c1,1.26,2.41,2.79,8.39,2.79h7L39.52,16.33Z" />
                <path fill="#fff" d="M31.76,3.26l0-.06A7.69,7.69,0,0,0,25.12,0H16.07l6.75,11.48Z" />
            </g>
        </g>
    </symbol>

    <symbol id="logo-1x" viewBox="0 0 50 27.9">
        <g>
            <path fill="#14a0ff"
                d="M8.82,27.9H.32L4,13l.85-2.25L2.6,13,.1,15.53,0,8.09,8.82,0h6.87Z" />
            <path fill="#fff"
                d="M39.51,16.34,36.8,11.75,49.95,0H37.7l-5,4.8,0,0L15.74,20.35,7.6,27.9H19.19l8.71-7.77,2.93,5c1,1.26,2.41,2.79,8.39,2.79h7L39.52,16.33Z" />
            <path fill="#fff" d="M31.76,3.26l0-.06A7.69,7.69,0,0,0,25.12,0H16.07l6.75,11.48Z" />
        </g>
    </symbol>

    <symbol id="icon-instagram" viewBox="0 0 256 256">
        <g fill="none">
            <rect width="256" height="256" fill="url(#skillIconsInstagram0)" rx="60" />
            <rect width="256" height="256" fill="url(#skillIconsInstagram1)" rx="60" />
            <path fill="#fff"
                d="M128.009 28c-27.158 0-30.567.119-41.233.604c-10.646.488-17.913 2.173-24.271 4.646c-6.578 2.554-12.157 5.971-17.715 11.531c-5.563 5.559-8.98 11.138-11.542 17.713c-2.48 6.36-4.167 13.63-4.646 24.271c-.477 10.667-.602 14.077-.602 41.236s.12 30.557.604 41.223c.49 10.646 2.175 17.913 4.646 24.271c2.556 6.578 5.973 12.157 11.533 17.715c5.557 5.563 11.136 8.988 17.709 11.542c6.363 2.473 13.631 4.158 24.275 4.646c10.667.485 14.073.604 41.23.604c27.161 0 30.559-.119 41.225-.604c10.646-.488 17.921-2.173 24.284-4.646c6.575-2.554 12.146-5.979 17.702-11.542c5.563-5.558 8.979-11.137 11.542-17.712c2.458-6.361 4.146-13.63 4.646-24.272c.479-10.666.604-14.066.604-41.225s-.125-30.567-.604-41.234c-.5-10.646-2.188-17.912-4.646-24.27c-2.563-6.578-5.979-12.157-11.542-17.716c-5.562-5.562-11.125-8.979-17.708-11.53c-6.375-2.474-13.646-4.16-24.292-4.647c-10.667-.485-14.063-.604-41.23-.604zm-8.971 18.021c2.663-.004 5.634 0 8.971 0c26.701 0 29.865.096 40.409.575c9.75.446 15.042 2.075 18.567 3.444c4.667 1.812 7.994 3.979 11.492 7.48c3.5 3.5 5.666 6.833 7.483 11.5c1.369 3.52 3 8.812 3.444 18.562c.479 10.542.583 13.708.583 40.396c0 26.688-.104 29.855-.583 40.396c-.446 9.75-2.075 15.042-3.444 18.563c-1.812 4.667-3.983 7.99-7.483 11.488c-3.5 3.5-6.823 5.666-11.492 7.479c-3.521 1.375-8.817 3-18.567 3.446c-10.542.479-13.708.583-40.409.583c-26.702 0-29.867-.104-40.408-.583c-9.75-.45-15.042-2.079-18.57-3.448c-4.666-1.813-8-3.979-11.5-7.479s-5.666-6.825-7.483-11.494c-1.369-3.521-3-8.813-3.444-18.563c-.479-10.542-.575-13.708-.575-40.413c0-26.704.096-29.854.575-40.396c.446-9.75 2.075-15.042 3.444-18.567c1.813-4.667 3.983-8 7.484-11.5c3.5-3.5 6.833-5.667 11.5-7.483c3.525-1.375 8.819-3 18.569-3.448c9.225-.417 12.8-.542 31.437-.563zm62.351 16.604c-6.625 0-12 5.37-12 11.996c0 6.625 5.375 12 12 12s12-5.375 12-12s-5.375-12-12-12zm-53.38 14.021c-28.36 0-51.354 22.994-51.354 51.355c0 28.361 22.994 51.344 51.354 51.344c28.361 0 51.347-22.983 51.347-51.344c0-28.36-22.988-51.355-51.349-51.355zm0 18.021c18.409 0 33.334 14.923 33.334 33.334c0 18.409-14.925 33.334-33.334 33.334c-18.41 0-33.333-14.925-33.333-33.334c0-18.411 14.923-33.334 33.333-33.334" />
            <defs>
                <radialGradient id="skillIconsInstagram0" cx="0" cy="0" r="1"
                    gradientTransform="matrix(0 -253.715 235.975 0 68 275.717)"
                    gradientUnits="userSpaceOnUse">
                    <stop stop-color="#FD5" />
                    <stop offset=".1" stop-color="#FD5" />
                    <stop offset=".5" stop-color="#FF543E" />
                    <stop offset="1" stop-color="#C837AB" />
                </radialGradient>
                <radialGradient id="skillIconsInstagram1" cx="0" cy="0" r="1"
                    gradientTransform="matrix(22.25952 111.2061 -458.39518 91.75449 -42.881 18.441)"
                    gradientUnits="userSpaceOnUse">
                    <stop stop-color="#3771C8" />
                    <stop offset=".128" stop-color="#3771C8" />
                    <stop offset="1" stop-color="#60F" stop-opacity="0" />
                </radialGradient>
            </defs>
        </g>
    </symbol>

    <symbol id="icon-tg" viewBox="0 0 256 256">
        <defs>
            <linearGradient id="logosTelegram0" x1="50%" x2="50%" y1="0%" y2="100%">
                <stop offset="0%" stop-color="#2AABEE" />
                <stop offset="100%" stop-color="#229ED9" />
            </linearGradient>
        </defs>
        <path fill="url(#logosTelegram0)"
            d="M128 0C94.06 0 61.48 13.494 37.5 37.49A128.038 128.038 0 0 0 0 128c0 33.934 13.5 66.514 37.5 90.51C61.48 242.506 94.06 256 128 256s66.52-13.494 90.5-37.49c24-23.996 37.5-56.576 37.5-90.51c0-33.934-13.5-66.514-37.5-90.51C194.52 13.494 161.94 0 128 0" />
        <path fill="#FFF"
            d="M57.94 126.648c37.32-16.256 62.2-26.974 74.64-32.152c35.56-14.786 42.94-17.354 47.76-17.441c1.06-.017 3.42.245 4.96 1.49c1.28 1.05 1.64 2.47 1.82 3.467c.16.996.38 3.266.2 5.038c-1.92 20.24-10.26 69.356-14.5 92.026c-1.78 9.592-5.32 12.808-8.74 13.122c-7.44.684-13.08-4.912-20.28-9.63c-11.26-7.386-17.62-11.982-28.56-19.188c-12.64-8.328-4.44-12.906 2.76-20.386c1.88-1.958 34.64-31.748 35.26-34.45c.08-.338.16-1.598-.6-2.262c-.74-.666-1.84-.438-2.64-.258c-1.14.256-19.12 12.152-54 35.686c-5.1 3.508-9.72 5.218-13.88 5.128c-4.56-.098-13.36-2.584-19.9-4.708c-8-2.606-14.38-3.984-13.82-8.41c.28-2.304 3.46-4.662 9.52-7.072" />
    </symbol>

    <symbol id="icon-twitter" viewBox="0 0 256 256">
        <g fill="none">
            <rect width="256" height="256" fill="#fff" rx="60" />
            <rect width="256" height="256" fill="#1D9BF0" rx="60" />
            <path fill="#fff"
                d="M199.572 91.411c.11 1.587.11 3.174.11 4.776c0 48.797-37.148 105.075-105.075 105.075v-.03A104.54 104.54 0 0 1 38 184.677c2.918.351 5.85.526 8.79.533a74.154 74.154 0 0 0 45.865-15.839a36.976 36.976 0 0 1-34.501-25.645a36.811 36.811 0 0 0 16.672-.636c-17.228-3.481-29.623-18.618-29.623-36.198v-.468a36.705 36.705 0 0 0 16.76 4.622c-16.226-10.845-21.228-32.432-11.43-49.31a104.814 104.814 0 0 0 76.111 38.582a36.95 36.95 0 0 1 10.683-35.283c14.874-13.982 38.267-13.265 52.249 1.601a74.105 74.105 0 0 0 23.451-8.965a37.061 37.061 0 0 1-16.234 20.424A73.446 73.446 0 0 0 218 72.282a75.023 75.023 0 0 1-18.428 19.13" />
        </g>
    </symbol>

    <symbol id="icon-youtube" viewBox="0 0 256 180">
        <path fill="red"
            d="M250.346 28.075A32.18 32.18 0 0 0 227.69 5.418C207.824 0 127.87 0 127.87 0S47.912.164 28.046 5.582A32.18 32.18 0 0 0 5.39 28.24c-6.009 35.298-8.34 89.084.165 122.97a32.18 32.18 0 0 0 22.656 22.657c19.866 5.418 99.822 5.418 99.822 5.418s79.955 0 99.82-5.418a32.18 32.18 0 0 0 22.657-22.657c6.338-35.348 8.291-89.1-.164-123.134" />
        <path fill="#FFF" d="m102.421 128.06l66.328-38.418l-66.328-38.418z" />
    </symbol>

    <symbol id="18-plus" viewBox="0 0 40 40">
        <path fill-rule="evenodd" clip-rule="evenodd"
            d="M20 38C29.9411 38 38 29.9411 38 20C38 10.0589 29.9411 2 20 2C10.0589 2 2 10.0589 2 20C2 29.9411 10.0589 38 20 38ZM20 40C31.0457 40 40 31.0457 40 20C40 8.9543 31.0457 0 20 0C8.9543 0 0 8.9543 0 20C0 31.0457 8.9543 40 20 40Z"
            fill="#C88F60" />
        <path
            d="M11.9178 14.1597H9.53603C9.50747 14.8726 8.5022 16.0875 7 16.0875V18.0494C8.29086 18.0494 9.13049 17.5703 9.38181 17.1825H9.49033V25.8403H11.9178V14.1597Z"
            fill="#C88F60" />
        <path
            d="M19.0647 26C21.6921 26 23.5941 24.5913 23.6056 22.6977C23.5941 21.2376 22.4746 20.0456 21.0695 19.8118V19.7319C22.2918 19.481 23.16 18.4202 23.1715 17.1426C23.16 15.3346 21.4237 14 19.0647 14C16.6886 14 14.9522 15.3346 14.9636 17.1426C14.9522 18.4202 15.8204 19.481 17.0656 19.7319V19.8118C15.6376 20.0456 14.5181 21.2376 14.5295 22.6977C14.5181 24.5913 16.4144 26 19.0647 26ZM19.0647 24.1863C17.8824 24.1863 17.0884 23.4962 17.0998 22.5038C17.0884 21.4943 17.9223 20.7643 19.0647 20.7643C20.1899 20.7643 21.0181 21.4943 21.0295 22.5038C21.0181 23.4962 20.2299 24.1863 19.0647 24.1863ZM19.0647 18.9677C18.0708 18.9677 17.3626 18.3232 17.374 17.3992C17.3626 16.4924 18.0594 15.8593 19.0647 15.8593C20.0528 15.8593 20.744 16.4924 20.7554 17.3992C20.744 18.3232 20.0414 18.9677 19.0647 18.9677Z"
            fill="#C88F60" />
        <path
            d="M33 19.0589H30.1898V16.3498H28.2764V19.0589H25.4662V20.9411H28.2764V23.6502H30.1898V20.9411H33V19.0589Z"
            fill="#C88F60" />
    </symbol>

    <symbol id="icon-mastercard" fill="none" height="36" viewBox="0 0 108 36" width="108"
        xmlns="http://www.w3.org/2000/svg">
        <path d="m23.7858 11.4229h-7.3214v13.1567h7.3214z" fill="#ff5f00" />
        <path
            d="m16.9282 18.0001c-.0011-1.2671.286-2.5178.8397-3.6575.5536-1.1397 1.3594-2.1386 2.3561-2.9208-1.2343-.9703-2.7167-1.57365-4.2778-1.7412s-3.1378.10748-4.5499.7937c-1.41212.6861-2.60272 1.7558-3.43568 3.0866-.83296 1.3309-1.27468 2.8692-1.27468 4.4392 0 1.5701.44172 3.1084 1.27468 4.4393.83296 1.3308 2.02356 2.4004 3.43568 3.0866 1.4121.6862 2.9888.9612 4.5499.7937 1.5611-.1676 3.0435-.7709 4.2778-1.7412-.9967-.7823-1.8024-1.7811-2.3561-2.9208s-.8408-2.3905-.8397-3.6576z"
            fill="#eb001b" />
        <path
            d="m33.6637 18.0001c0 1.57-.4417 3.1084-1.2746 4.4392-.8329 1.3309-2.0234 2.4005-3.4355 3.0867-1.4122.6862-2.9888.9612-4.5499.7937-1.561-.1676-3.0434-.7709-4.2777-1.7412.9959-.7831 1.801-1.782 2.3546-2.9216.5535-1.1395.8412-2.3899.8412-3.6568s-.2877-2.5172-.8412-3.6568c-.5536-1.1395-1.3587-2.1385-2.3546-2.9216 1.2343-.9702 2.7167-1.57355 4.2777-1.7411 1.5611-.16755 3.1377.10749 4.5499.7937 1.4121.6862 2.6026 1.7558 3.4355 3.0867.8329 1.3308 1.2746 2.8691 1.2746 4.4391z"
            fill="#f79e1b" />
        <path
            d="m48.2876 20.9852v-3.5147c0-1.3445-.819-2.2249-2.2249-2.2249-.7029 0-1.4673.232-1.9928.9964-.4095-.6415-.9964-.9964-1.8768-.9964-.587 0-1.1739.1774-1.638.8189v-.7029h-1.2284v5.6236h1.2284v-3.1053c0-.9964.5255-1.4673 1.3445-1.4673s1.2285.5255 1.2285 1.4673v3.1053h1.2284v-3.1053c0-.9964.5869-1.4673 1.3445-1.4673.819 0 1.2285.5255 1.2285 1.4673v3.1053zm18.2221-5.6236h-1.9928v-1.6994h-1.2285v1.6994h-1.1124v1.1124h1.1124v2.5798c0 1.2899.5256 2.0474 1.9315 2.0474.5255 0 1.1124-.1774 1.5219-.4095l-.3549-1.0578c-.3549.232-.7644.2935-1.0578.2935-.587 0-.819-.3549-.819-.935v-2.5184h1.9928v-1.1124zm10.4283-.1229c-.703 0-1.1739.3549-1.4673.819v-.7029h-1.2285v5.6236h1.2285v-3.1667c0-.935.4094-1.4673 1.1738-1.4673.2321 0 .5255.0614.7644.116l.3549-1.1739c-.2457-.0478-.5938-.0478-.8258-.0478zm-15.7584.587c-.5869-.4095-1.4059-.587-2.2863-.587-1.4059 0-2.3409.703-2.3409 1.8154 0 .935.7029 1.4674 1.9314 1.638l.5869.0614c.6416.116.9965.2935.9965.5869 0 .4095-.471.703-1.2899.703-.819 0-1.4674-.2935-1.8768-.5869l-.587.935c.6416.4709 1.5219.7029 2.4023.7029 1.638 0 2.5798-.7644 2.5798-1.8154 0-.9964-.7644-1.5219-1.9314-1.6994l-.5869-.0614c-.5255-.0614-.935-.1774-.935-.5255 0-.4095.4095-.6415 1.0578-.6415.703 0 1.4059.2935 1.7608.4709zm32.6838-.587c-.7029 0-1.1738.3549-1.4673.819v-.7029h-1.2285v5.6236h1.2285v-3.1667c0-.935.4095-1.4673 1.1739-1.4673.232 0 .5255.0614.7643.116l.3549-1.1602c-.2388-.0614-.5869-.0615-.8258-.0615zm-15.6969 2.9347c0 1.6994 1.1738 2.9278 2.9892 2.9278.819 0 1.4059-.1774 1.9928-.6415l-.5869-.9964c-.4709.3549-.935.5255-1.4673.5255-.9964 0-1.6994-.703-1.6994-1.8154 0-1.0578.703-1.7608 1.6994-1.8154.5255 0 .9964.1775 1.4673.5255l.5869-.9964c-.5869-.4709-1.1738-.6415-1.9928-.6415-1.8154-.0068-2.9892 1.2284-2.9892 2.9278zm11.3632 0v-2.8118h-1.2285v.7029c-.4094-.5255-.9964-.8189-1.7608-.8189-1.5833 0-2.8118 1.2284-2.8118 2.9278s1.2285 2.9278 2.8118 2.9278c.819 0 1.406-.2934 1.7608-.8189v.7029h1.2285zm-4.5112 0c0-.9964.6416-1.8154 1.6994-1.8154.9964 0 1.6994.7644 1.6994 1.8154 0 .9964-.703 1.8154-1.6994 1.8154-1.051-.0614-1.6994-.8258-1.6994-1.8154zm-14.7005-2.9347c-1.638 0-2.8118 1.1739-2.8118 2.9279 0 1.7608 1.1738 2.9278 2.8732 2.9278.819 0 1.6379-.232 2.2863-.7644l-.5869-.8804c-.471.3549-1.0579.587-1.638.587-.7644 0-1.5219-.3549-1.6994-1.3445h4.1563c0-.1775 0-.2935 0-.4709.0546-1.8086-1.0032-2.9825-2.5797-2.9825zm0 1.0579c.7643 0 1.2898.4709 1.4059 1.3445h-2.9279c.1161-.7576.6416-1.3445 1.522-1.3445zm30.52 1.8768v-5.0367h-1.2281v2.9278c-.4095-.5255-.9964-.8189-1.7608-.8189-1.5833 0-2.8118 1.2284-2.8118 2.9278s1.2285 2.9278 2.8118 2.9278c.819 0 1.4059-.2934 1.7608-.8189v.7029h1.2281zm-4.5108 0c0-.9964.6415-1.8154 1.6993-1.8154.9965 0 1.6994.7644 1.6994 1.8154 0 .9964-.7029 1.8154-1.6994 1.8154-1.0578-.0614-1.6993-.8258-1.6993-1.8154zm-41.1261 0v-2.8118h-1.2285v.7029c-.4095-.5255-.9964-.8189-1.7608-.8189-1.5833 0-2.8118 1.2284-2.8118 2.9278s1.2285 2.9278 2.8118 2.9278c.819 0 1.4059-.2934 1.7608-.8189v.7029h1.2285zm-4.5658 0c0-.9964.6415-1.8154 1.6994-1.8154.9964 0 1.6993.7644 1.6993 1.8154 0 .9964-.7029 1.8154-1.6993 1.8154-1.0579-.0614-1.6994-.8258-1.6994-1.8154z"
            fill="#fff" />
    </symbol>

    <symbol id="icon-visa" fill="none" height="36" viewBox="0 0 108 36" width="108"
        xmlns="http://www.w3.org/2000/svg">
        <g fill="#fff">
            <path
                d="m80.1653 25.4299c-1.3066 0-2.6133 0-3.9395 0-.1442-.6764-.2988-1.3381-.4209-2.0054-.0506-.2769-.1413-.3843-.4578-.3803-1.5797.0198-3.1598.0149-4.7395.0027-.2392-.0019-.3343.0753-.407.2879-.2177.636-.4557 1.2654-.6992 1.8923-.033.0852-.1426.202-.2176.2025-1.4239.0122-2.8481.009-4.3131.009.267-.6278.5199-1.2273.7765-1.8251 1.836-4.2773 3.6727-8.5543 5.5093-12.8314.3978-.92632.9941-1.31422 2.02-1.31428 1.1431-.00009 2.2863-.00003 3.4587-.00003.1143.52147.2293 1.03531.3394 1.55021.9036 4.2269 1.8049 8.4542 2.7105 12.6807.1161.5413.2529 1.0785.3802 1.6175zm-5.1561-5.6723c-.4198-1.9654-.834-3.9044-1.2483-5.8435-.0168-.0033-.0337-.0065-.0507-.0098-.7217 1.944-1.4434 3.8879-2.1732 5.8533z" />
            <path
                d="m63.0029 9.18359c.5198.09426 1.0437.17176 1.5586.2877.4696.1058.9296.25327 1.4288.39211-.2516 1.149-.4972 2.2704-.7375 3.3676-.6587-.1886-1.2882-.4057-1.9354-.5452-.8851-.1907-1.7919-.2634-2.6774-.0225-.3601.0979-.7243.286-1.0077.523-.4861.4067-.4927.9921-.0283 1.419.3201.2944.6995.536 1.0787.7586.8619.5061 1.7669.9463 2.6046 1.487.9866.6367 1.7062 1.5119 1.8572 2.6955.2673 2.0934-.5255 3.7423-2.3264 4.9088-1.1325.7336-2.414 1.0612-3.7492 1.1826-1.8645.1693-3.6922-.0347-5.4736-.606-.1195-.0384-.2357-.0862-.3521-.1328-.0348-.0137-.065-.0384-.1182-.0708.2516-1.1507.5036-2.3032.7627-3.4879.3037.1295.5888.2592.8801.3739 1.3918.5476 2.8291.7981 4.3188.5256.3876-.071.7828-.238 1.1113-.453.7129-.4667.7812-1.3435.1322-1.8916-.4267-.3602-.9394-.6262-1.4256-.9155-.7592-.4514-1.5658-.8364-2.2843-1.3418-.9209-.6479-1.588-1.5117-1.7144-2.6597-.1893-1.7191.464-3.115 1.8154-4.1995 1.1758-.94374 2.5718-1.36253 4.0592-1.53842.0826-.00978.1631-.03738.2445-.05669z" />
            <path
                d="m47.6832 9.48101c-.2214.51999-.4308 1.01579-.6432 1.51039-2.0276 4.7227-4.0576 9.4443-6.0769 14.1704-.0961.2252-.2138.2843-.4476.2824-1.2798-.0103-2.5596-.0145-3.8391.0027-.2713.0037-.3597-.0892-.4222-.3268-1.0848-4.128-2.1879-8.2515-3.2604-12.3825-.1968-.7579-.5907-1.2755-1.3295-1.5932-1.1842-.5092-2.4136-.8669-3.6675-1.15762-.0555-.01287-.1108-.02694-.1628-.03965.0062-.47911.0062-.47912.4729-.47913 2.2395 0 4.4791-.0005 6.7186.00021 1.0622.00034 1.8289.60289 2.0297 1.62939.5686 2.9063 1.1251 5.8148 1.6867 8.7223.0245.1272.0525.2537.0896.4328.0582-.1066.0987-.1665.1251-.2319 1.3909-3.4352 2.7823-6.8702 4.1662-10.30815.0756-.18767.1687-.25133.3763-.24973 1.299.01006 2.5982.00487 3.8973.00557.084.00005.1678.00713.2868.01252z" />
            <path
                d="m45.9873 25.4386c1.1699-5.3388 2.3317-10.64 3.4963-15.95422h4.2433c-.1766.80942-.3492 1.60332-.5231 2.39702-.9614 4.3895-1.9263 8.7783-2.8771 13.1698-.066.3052-.1768.4021-.5012.396-1.1628-.0219-2.3263-.0086-3.4897-.0086-.1043 0-.2087 0-.3485 0z" />
        </g>
    </symbol>

    <symbol id="icon-interac" fill="none" height="36" viewBox="0 0 108 36" width="108"
        xmlns="http://www.w3.org/2000/svg">
        <path
            d="m67 26.9515c0 2.2358-1.8127 4.0485-4.0485 4.0485h-17.9354c-2.2181 0-4.0161-1.798-4.0161-4.0156v-18.11294c0-2.13822 1.7332-3.87146 3.8715-3.87146h18.257c2.1383 0 3.8715 1.73324 3.8715 3.87097z"
            fill="#ebab1f" />
        <path
            d="m43.4534 15.1192v6.6073l-1.1792.2648v-6.6074zm3.1218.8521c-.7276.1633-1.1743.9826-1.1743.9826v-.6158l-1.1444.2495v3.9421c.1398-.0534.2913-.0843.4497-.0843.2549 0 .4917.0765.6898.2069v-1.9245c.0088-.9218.2731-1.4601.8252-1.5842.4849-.1088.6668.2525.659.8105v3.01l1.1233-.2535.0078-3.0007c.0098-1.4694-.583-1.9303-1.4361-1.7386zm1.7004-.2863.6438-.1447v-.9247l1.1385-.2535v.9228l.8104-.1824-.0112.9992-.8115.1824-.0059 2.5021c.0054.3054.0589.4947.4016.4177.1338-.0299.2407-.0637.3628-.1103l.0029.9384c-.2843.1349-.4559.1893-.6898.2418-.6511.1505-1.213-.2731-1.213-1.1385l.0039-2.5957-.6443.1446zm3.9646 1.8921c.0005.1054-.0024.1917.0147.2932.0853.5069.3344.9007.8468.7859.4707-.1054.6271-.4182.7173-.7634l1.1929-.2677c-.1245.7644-.5378 1.7279-1.8401 2.0196-1.1679.2618-1.874-.4124-2.0676-1.5646-.2123-1.263.1167-3.1448 1.8474-3.5331 1.2773-.2864 1.875.4692 2.0392 1.4464.0652.3873.0613.6751.0388.9575zm1.6573-1.242c.0029-.0868-.0094-.1603-.0187-.2157-.0696-.4148-.2981-.7369-.8021-.6237-.5212.1167-.7781.557-.8257 1.2086zm3.9494-1.4523c-.7929.1878-1.1753.7404-1.1797 1.824l-.0103 2.0593-1.1375.2554v-4.9639l1.0978-.2461c.0142.1216.0402.4893.0382.8924.1849-.6355.4384-.962 1.191-1.1307v1.3096zm4.0406 2.6727-.0064.0015-1.1419.2579c-.0785-.1427-.1574-.3692-.1917-.5286-.1618.3427-.3834.7374-1.1866.9179-.8531.1917-1.338-.3893-1.4439-.9502-.2506-1.3234.6992-1.9662 1.671-2.2138.3495-.0892.6437-.1417.9757-.2255l-.0167-.2976c-.0074-.3624-.0912-.8037-.7016-.6664-.5438.1221-.5722.4663-.6208.7169l-1.1625.2608c.0147-.7987.3633-1.5695 1.7097-1.872 1.0537-.2368 1.9299.076 1.922 1.3714v2.3545s.028.3971.0731.5883c.0456.1942.1206.2849.1206.2849zm-1.3415-1.9362c-.2844.0637-.5236.1368-.7438.2152-.6148.253-.8222.5394-.7457.9434.0519.2755.251.4515.6192.3687.786-.1765.8546-.9203.8679-1.4499zm5.4449-.632c-.0638.9531-.5085 1.8293-1.7882 2.1166-1.0958.2462-1.8068-.3319-2.0225-1.4719-.2608-1.3787.1334-3.2591 1.7391-3.6194 1.4052-.3158 1.9632.6996 2.0196 1.3194l-1.1042.2481c-.0779-.3658-.2579-.7183-.7683-.6036-.8031.1805-.8703 1.5754-.7261 2.3383.125.6619.4236.9012.833.8095.3766-.0843.5923-.3726.6791-.8806zm-18.6802 8.4381-1.6102-1.0958s-.0005 2.5712-.0005 2.6893c0 .0824-.0672.1496-.149.1496-.0824 0-.1486-.0672-.1486-.1496 0-.0289-.0034-2.9403-.0034-3.2958 0-.381-.3094-.6913-.6904-.6913-.3824 0-.6913.3103-.6913.6913l.001 5.742c0 1.0306.8389 1.871 1.87 1.871h.1235c1.0169 0 1.8333-.8242 1.8333-1.8416 0 0 .001-2.9997.001-3.0301 0-.3986-.2202-.7972-.5354-1.039zm-4.6722-.856c-.2848.0686-.4609.355-.3922.6398.0686.2849.355.4609.6398.3923l.8046-.1932v-1.0919zm0 1.4067c-.2848.0686-.4609.3549-.3922.6398.0686.2849.355.4609.6398.3923l.8046-.1932v-1.0919zm-.3922 2.047c.0681.2849.355.4609.6398.3922l.8046-.1931v-1.092l-1.0522.2526c-.2848.0686-.4604.3554-.3922.6403z"
            fill="#000" />
    </symbol>
</svg>